<svg xmlns="http://www.w3.org/2000/svg" viewBox="0 0 1600 1836" role="img" aria-label="Wagon prototype development with date axis and row grid" data-date-axis="true"><rect width="1600" height="1836" fill="#0e1521"/><style>text{font-family:Arial,sans-serif;fill:#e7edf5}.axis{font-size:14px;fill:#b8c9dc}.task{font-size:14px}.heading{font-size:27px;font-weight:bold}</style><text x="22" y="38" class="heading">Wagon prototype development</text><text x="22" y="64" class="axis">2026-07-08 to 2026-10-23 · 36 tasks · bars use inclusive finish dates</text><rect x="0" y="82" width="1600" height="68" fill="#182637"/><rect x="0" y="150" width="1600" height="46" fill="#0e1521"/><rect x="0" y="196" width="1600" height="46" fill="#142031"/><rect x="0" y="242" width="1600" height="46" fill="#0e1521"/><rect x="0" y="288" width="1600" height="46" fill="#142031"/><rect x="0" y="334" width="1600" height="46" fill="#0e1521"/><rect x="0" y="380" width="1600" height="46" fill="#142031"/><rect x="0" y="426" width="1600" height="46" fill="#0e1521"/><rect x="0" y="472" width="1600" height="46" fill="#142031"/><rect x="0" y="518" width="1600" height="46" fill="#0e1521"/><rect x="0" y="564" width="1600" height="46" fill="#142031"/><rect x="0" y="610" width="1600" height="46" fill="#0e1521"/><rect x="0" y="656" width="1600" height="46" fill="#142031"/><rect x="0" y="702" width="1600" height="46" fill="#0e1521"/><rect x="0" y="748" width="1600" height="46" fill="#142031"/><rect x="0" y="794" width="1600" height="46" fill="#0e1521"/><rect x="0" y="840" width="1600" height="46" fill="#142031"/><rect x="0" y="886" width="1600" height="46" fill="#0e1521"/><rect x="0" y="932" width="1600" height="46" fill="#142031"/><rect x="0" y="978" width="1600" height="46" fill="#0e1521"/><rect x="0" y="1024" width="1600" height="46" fill="#142031"/><rect x="0" y="1070" width="1600" height="46" fill="#0e1521"/><rect x="0" y="1116" width="1600" height="46" fill="#142031"/><rect x="0" y="1162" width="1600" height="46" fill="#0e1521"/><rect x="0" y="1208" width="1600" height="46" fill="#142031"/><rect x="0" y="1254" width="1600" height="46" fill="#0e1521"/><rect x="0" y="1300" width="1600" height="46" fill="#142031"/><rect x="0" y="1346" width="1600" height="46" fill="#0e1521"/><rect x="0" y="1392" width="1600" height="46" fill="#142031"/><rect x="0" y="1438" width="1600" height="46" fill="#0e1521"/><rect x="0" y="1484" width="1600" height="46" fill="#142031"/><rect x="0" y="1530" width="1600" height="46" fill="#0e1521"/><rect x="0" y="1576" width="1600" height="46" fill="#142031"/><rect x="0" y="1622" width="1600" height="46" fill="#0e1521"/><rect x="0" y="1668" width="1600" height="46" fill="#142031"/><rect x="0" y="1714" width="1600" height="46" fill="#0e1521"/><rect x="0" y="1760" width="1600" height="46" fill="#142031"/><rect x="480.00" y="82" width="234.46" height="30" fill="#22374a" stroke="#476078"/><text x="487.00" y="103" class="axis">Jul 2026</text><rect x="714.46" y="82" width="279.55" height="30" fill="#22374a" stroke="#476078"/><text x="721.46" y="103" class="axis">Aug 2026</text><rect x="994.02" y="82" width="270.54" height="30" fill="#22374a" stroke="#476078"/><text x="1001.02" y="103" class="axis">Sep 2026</text><rect x="1264.55" y="82" width="225.45" height="30" fill="#22374a" stroke="#476078"/><text x="1271.55" y="103" class="axis">Oct 2026</text><line class="date-grid" x1="480.00" y1="112" x2="480.00" y2="1806" stroke="#4e6881" stroke-width="1.2"/><text class="axis date-tick" x="484.00" y="136" text-anchor="start">Jul 6</text><line class="date-grid" x1="543.12" y1="112" x2="543.12" y2="1806" stroke="#293d52" stroke-width="0.7"/><line class="date-grid" x1="606.25" y1="112" x2="606.25" y2="1806" stroke="#4e6881" stroke-width="1.2"/><text class="axis date-tick" x="610.25" y="136" text-anchor="start">Jul 20</text><line class="date-grid" x1="669.38" y1="112" x2="669.38" y2="1806" stroke="#293d52" stroke-width="0.7"/><line class="date-grid" x1="732.50" y1="112" x2="732.50" y2="1806" stroke="#4e6881" stroke-width="1.2"/><text class="axis date-tick" x="736.50" y="136" text-anchor="start">Aug 3</text><line class="date-grid" x1="795.62" y1="112" x2="795.62" y2="1806" stroke="#293d52" stroke-width="0.7"/><line class="date-grid" x1="858.75" y1="112" x2="858.75" y2="1806" stroke="#4e6881" stroke-width="1.2"/><text class="axis date-tick" x="862.75" y="136" text-anchor="start">Aug 17</text><line class="date-grid" x1="921.88" y1="112" x2="921.88" y2="1806" stroke="#293d52" stroke-width="0.7"/><line class="date-grid" x1="985.00" y1="112" x2="985.00" y2="1806" stroke="#4e6881" stroke-width="1.2"/><text class="axis date-tick" x="989.00" y="136" text-anchor="start">Aug 31</text><line class="date-grid" x1="1048.12" y1="112" x2="1048.12" y2="1806" stroke="#293d52" stroke-width="0.7"/><line class="date-grid" x1="1111.25" y1="112" x2="1111.25" y2="1806" stroke="#4e6881" stroke-width="1.2"/><text class="axis date-tick" x="1115.25" y="136" text-anchor="start">Sep 14</text><line class="date-grid" x1="1174.38" y1="112" x2="1174.38" y2="1806" stroke="#293d52" stroke-width="0.7"/><line class="date-grid" x1="1237.50" y1="112" x2="1237.50" y2="1806" stroke="#4e6881" stroke-width="1.2"/><text class="axis date-tick" x="1241.50" y="136" text-anchor="start">Sep 28</text><line class="date-grid" x1="1300.62" y1="112" x2="1300.62" y2="1806" stroke="#293d52" stroke-width="0.7"/><line class="date-grid" x1="1363.75" y1="112" x2="1363.75" y2="1806" stroke="#4e6881" stroke-width="1.2"/><text class="axis date-tick" x="1367.75" y="136" text-anchor="start">Oct 12</text><line class="date-grid" x1="1426.88" y1="112" x2="1426.88" y2="1806" stroke="#293d52" stroke-width="0.7"/><line class="date-grid" x1="1490.00" y1="112" x2="1490.00" y2="1806" stroke="#4e6881" stroke-width="1.2"/><text class="axis date-tick" x="1486.00" y="136" text-anchor="end">Oct 26</text><text x="22" y="132" class="axis">TASK / BUILD ACTIVITY</text><text x="1576" y="132" class="axis" text-anchor="end">DONE</text><line class="task-grid" x1="0" y1="196" x2="1600" y2="196" stroke="#2e4357"/><text x="22" y="179" class="task">01 Purchasing</text><text x="1576" y="179" class="task" text-anchor="end">100%</text><rect x="498.04" y="163" width="90.18" height="22" rx="4" fill="#254b71" stroke="#6aacfb"/><rect x="498.04" y="163" width="90.18" height="22" rx="4" fill="#70b3ff"/><line class="task-grid" x1="0" y1="242" x2="1600" y2="242" stroke="#2e4357"/><text x="22" y="225" class="task">01.1 Select major components</text><text x="1576" y="225" class="task" text-anchor="end">100%</text><rect x="498.04" y="209" width="27.05" height="22" rx="4" fill="#254b71" stroke="#6aacfb"/><rect x="498.04" y="209" width="27.05" height="22" rx="4" fill="#70b3ff"/><line class="task-grid" x1="0" y1="288" x2="1600" y2="288" stroke="#2e4357"/><text x="22" y="271" class="task">01.2 Order prototype parts</text><text x="1576" y="271" class="task" text-anchor="end">100%</text><rect x="525.09" y="255" width="63.12" height="22" rx="4" fill="#254b71" stroke="#6aacfb"/><rect x="525.09" y="255" width="63.12" height="22" rx="4" fill="#70b3ff"/><line class="task-grid" x1="0" y1="334" x2="1600" y2="334" stroke="#2e4357"/><text x="22" y="317" class="task">02 Hardware design</text><text x="1576" y="317" class="task" text-anchor="end">100%</text><rect x="543.12" y="301" width="108.21" height="22" rx="4" fill="#254b71" stroke="#6aacfb"/><rect x="543.12" y="301" width="108.21" height="22" rx="4" fill="#70b3ff"/><line class="task-grid" x1="0" y1="380" x2="1600" y2="380" stroke="#2e4357"/><text x="22" y="363" class="task">02.1 Lay out mechanical interfaces</text><text x="1576" y="363" class="task" text-anchor="end">100%</text><rect x="543.12" y="347" width="45.09" height="22" rx="4" fill="#254b71" stroke="#6aacfb"/><rect x="543.12" y="347" width="45.09" height="22" rx="4" fill="#70b3ff"/><line class="task-grid" x1="0" y1="426" x2="1600" y2="426" stroke="#2e4357"/><text x="22" y="409" class="task">02.2 Plan wiring and safety inputs</text><text x="1576" y="409" class="task" text-anchor="end">100%</text><rect x="588.21" y="393" width="63.13" height="22" rx="4" fill="#254b71" stroke="#6aacfb"/><rect x="588.21" y="393" width="63.13" height="22" rx="4" fill="#70b3ff"/><line class="task-grid" x1="0" y1="472" x2="1600" y2="472" stroke="#2e4357"/><text x="22" y="455" class="task">03 Fabrication</text><text x="1576" y="455" class="task" text-anchor="end">100%</text><rect x="651.34" y="439" width="189.38" height="22" rx="4" fill="#254b71" stroke="#6aacfb"/><rect x="651.34" y="439" width="189.38" height="22" rx="4" fill="#70b3ff"/><line class="task-grid" x1="0" y1="518" x2="1600" y2="518" stroke="#2e4357"/><text x="22" y="501" class="task">03.1 Fabricate and fit mounts</text><text x="1576" y="501" class="task" text-anchor="end">100%</text><rect x="651.34" y="485" width="99.20" height="22" rx="4" fill="#254b71" stroke="#6aacfb"/><rect x="651.34" y="485" width="99.20" height="22" rx="4" fill="#70b3ff"/><line class="task-grid" x1="0" y1="564" x2="1600" y2="564" stroke="#2e4357"/><text x="22" y="547" class="task">03.2 Assemble and wire prototype</text><text x="1576" y="547" class="task" text-anchor="end">100%</text><rect x="750.54" y="531" width="90.18" height="22" rx="4" fill="#254b71" stroke="#6aacfb"/><rect x="750.54" y="531" width="90.18" height="22" rx="4" fill="#70b3ff"/><line class="task-grid" x1="0" y1="610" x2="1600" y2="610" stroke="#2e4357"/><text x="22" y="593" class="task">04 First controller test</text><text x="1576" y="593" class="task" text-anchor="end">100%</text><rect x="840.71" y="577" width="27.05" height="22" rx="4" fill="#254b71" stroke="#6aacfb"/><rect x="840.71" y="577" width="27.05" height="22" rx="4" fill="#70b3ff"/><line class="task-grid" x1="0" y1="656" x2="1600" y2="656" stroke="#2e4357"/><text x="22" y="639" class="task">04.1 Check inputs and enable behavior</text><text x="1576" y="639" class="task" text-anchor="end">100%</text><rect x="840.71" y="623" width="18.04" height="22" rx="4" fill="#254b71" stroke="#6aacfb"/><rect x="840.71" y="623" width="18.04" height="22" rx="4" fill="#70b3ff"/><line class="task-grid" x1="0" y1="702" x2="1600" y2="702" stroke="#2e4357"/><text x="22" y="685" class="task">04.2 Run initial controller motion check</text><text x="1576" y="685" class="task" text-anchor="end">100%</text><rect x="858.75" y="669" width="9.02" height="22" rx="4" fill="#254b71" stroke="#6aacfb"/><rect x="858.75" y="669" width="9.02" height="22" rx="4" fill="#70b3ff"/><line class="task-grid" x1="0" y1="748" x2="1600" y2="748" stroke="#2e4357"/><text x="22" y="731" class="task">05 OTA</text><text x="1576" y="731" class="task" text-anchor="end">100%</text><rect x="858.75" y="715" width="9.02" height="22" rx="4" fill="#254b71" stroke="#6aacfb"/><rect x="858.75" y="715" width="9.02" height="22" rx="4" fill="#70b3ff"/><line class="task-grid" x1="0" y1="794" x2="1600" y2="794" stroke="#2e4357"/><text x="22" y="777" class="task">05.1 Add OTA service</text><text x="1576" y="777" class="task" text-anchor="end">100%</text><rect x="858.75" y="761" width="9.02" height="22" rx="4" fill="#254b71" stroke="#6aacfb"/><rect x="858.75" y="761" width="9.02" height="22" rx="4" fill="#70b3ff"/><line class="task-grid" x1="0" y1="840" x2="1600" y2="840" stroke="#2e4357"/><text x="22" y="823" class="task">05.2 Verify disabled-state OTA path</text><text x="1576" y="823" class="task" text-anchor="end">100%</text><rect x="858.75" y="807" width="9.02" height="22" rx="4" fill="#254b71" stroke="#6aacfb"/><rect x="858.75" y="807" width="9.02" height="22" rx="4" fill="#70b3ff"/><line class="task-grid" x1="0" y1="886" x2="1600" y2="886" stroke="#2e4357"/><text x="22" y="869" class="task">06 Web app</text><text x="1576" y="869" class="task" text-anchor="end">100%</text><rect x="867.77" y="853" width="9.02" height="22" rx="4" fill="#254b71" stroke="#6aacfb"/><rect x="867.77" y="853" width="9.02" height="22" rx="4" fill="#70b3ff"/><line class="task-grid" x1="0" y1="932" x2="1600" y2="932" stroke="#2e4357"/><text x="22" y="915" class="task">06.1 Build live DAQ display</text><text x="1576" y="915" class="task" text-anchor="end">100%</text><rect x="867.77" y="899" width="9.02" height="22" rx="4" fill="#254b71" stroke="#6aacfb"/><rect x="867.77" y="899" width="9.02" height="22" rx="4" fill="#70b3ff"/><line class="task-grid" x1="0" y1="978" x2="1600" y2="978" stroke="#2e4357"/><text x="22" y="961" class="task">06.2 Add basic control UI</text><text x="1576" y="961" class="task" text-anchor="end">100%</text><rect x="867.77" y="945" width="9.02" height="22" rx="4" fill="#254b71" stroke="#6aacfb"/><rect x="867.77" y="945" width="9.02" height="22" rx="4" fill="#70b3ff"/><line class="task-grid" x1="0" y1="1024" x2="1600" y2="1024" stroke="#2e4357"/><text x="22" y="1007" class="task">07 Ground station</text><text x="1576" y="1007" class="task" text-anchor="end">100%</text><rect x="867.77" y="991" width="81.16" height="22" rx="4" fill="#254b71" stroke="#6aacfb"/><rect x="867.77" y="991" width="81.16" height="22" rx="4" fill="#70b3ff"/><line class="task-grid" x1="0" y1="1070" x2="1600" y2="1070" stroke="#2e4357"/><text x="22" y="1053" class="task">07.1 Build DAQ backend and state supervision</text><text x="1576" y="1053" class="task" text-anchor="end">100%</text><rect x="867.77" y="1037" width="27.05" height="22" rx="4" fill="#254b71" stroke="#6aacfb"/><rect x="867.77" y="1037" width="27.05" height="22" rx="4" fill="#70b3ff"/><line class="task-grid" x1="0" y1="1116" x2="1600" y2="1116" stroke="#2e4357"/><text x="22" y="1099" class="task">07.2 Add recovery and run records</text><text x="1576" y="1099" class="task" text-anchor="end">100%</text><rect x="894.82" y="1083" width="54.11" height="22" rx="4" fill="#254b71" stroke="#6aacfb"/><rect x="894.82" y="1083" width="54.11" height="22" rx="4" fill="#70b3ff"/><line class="task-grid" x1="0" y1="1162" x2="1600" y2="1162" stroke="#2e4357"/><text x="22" y="1145" class="task">08 Test jig</text><text x="1576" y="1145" class="task" text-anchor="end">100%</text><rect x="939.91" y="1129" width="81.16" height="22" rx="4" fill="#254b71" stroke="#6aacfb"/><rect x="939.91" y="1129" width="81.16" height="22" rx="4" fill="#70b3ff"/><line class="task-grid" x1="0" y1="1208" x2="1600" y2="1208" stroke="#2e4357"/><text x="22" y="1191" class="task">08.1 Bring up LiDAR test instrumentation</text><text x="1576" y="1191" class="task" text-anchor="end">100%</text><rect x="939.91" y="1175" width="27.05" height="22" rx="4" fill="#254b71" stroke="#6aacfb"/><rect x="939.91" y="1175" width="27.05" height="22" rx="4" fill="#70b3ff"/><line class="task-grid" x1="0" y1="1254" x2="1600" y2="1254" stroke="#2e4357"/><text x="22" y="1237" class="task">08.2 Validate recorded/recovered data path</text><text x="1576" y="1237" class="task" text-anchor="end">100%</text><rect x="966.96" y="1221" width="54.11" height="22" rx="4" fill="#254b71" stroke="#6aacfb"/><rect x="966.96" y="1221" width="54.11" height="22" rx="4" fill="#70b3ff"/><line class="task-grid" x1="0" y1="1300" x2="1600" y2="1300" stroke="#2e4357"/><text x="22" y="1283" class="task">09 Ground station test integration</text><text x="1576" y="1283" class="task" text-anchor="end">100%</text><rect x="1021.07" y="1267" width="54.11" height="22" rx="4" fill="#254b71" stroke="#6aacfb"/><rect x="1021.07" y="1267" width="54.11" height="22" rx="4" fill="#70b3ff"/><line class="task-grid" x1="0" y1="1346" x2="1600" y2="1346" stroke="#2e4357"/><text x="22" y="1329" class="task">09.1 Integrate recovery diagnostics</text><text x="1576" y="1329" class="task" text-anchor="end">100%</text><rect x="1021.07" y="1313" width="18.04" height="22" rx="4" fill="#254b71" stroke="#6aacfb"/><rect x="1021.07" y="1313" width="18.04" height="22" rx="4" fill="#70b3ff"/><line class="task-grid" x1="0" y1="1392" x2="1600" y2="1392" stroke="#2e4357"/><text x="22" y="1375" class="task">09.2 Integrate controller configuration and test flow</text><text x="1576" y="1375" class="task" text-anchor="end">100%</text><rect x="1039.11" y="1359" width="36.07" height="22" rx="4" fill="#254b71" stroke="#6aacfb"/><rect x="1039.11" y="1359" width="36.07" height="22" rx="4" fill="#70b3ff"/><line class="task-grid" x1="0" y1="1438" x2="1600" y2="1438" stroke="#2e4357"/><text x="22" y="1421" class="task">10 Analysis server</text><text x="1576" y="1421" class="task" text-anchor="end">100%</text><rect x="1084.20" y="1405" width="189.38" height="22" rx="4" fill="#254b71" stroke="#6aacfb"/><rect x="1084.20" y="1405" width="189.38" height="22" rx="4" fill="#70b3ff"/><line class="task-grid" x1="0" y1="1484" x2="1600" y2="1484" stroke="#2e4357"/><text x="22" y="1467" class="task">10.1 Build Analysis service and LAN connection</text><text x="1576" y="1467" class="task" text-anchor="end">100%</text><rect x="1084.20" y="1451" width="63.12" height="22" rx="4" fill="#254b71" stroke="#6aacfb"/><rect x="1084.20" y="1451" width="63.12" height="22" rx="4" fill="#70b3ff"/><line class="task-grid" x1="0" y1="1530" x2="1600" y2="1530" stroke="#2e4357"/><text x="22" y="1513" class="task">10.2 Connect run review workflow</text><text x="1576" y="1513" class="task" text-anchor="end">100%</text><rect x="1147.32" y="1497" width="126.25" height="22" rx="4" fill="#254b71" stroke="#6aacfb"/><rect x="1147.32" y="1497" width="126.25" height="22" rx="4" fill="#70b3ff"/><line class="task-grid" x1="0" y1="1576" x2="1600" y2="1576" stroke="#2e4357"/><text x="22" y="1559" class="task">11 Controller design</text><text x="1576" y="1559" class="task" text-anchor="end">50%</text><rect x="1300.62" y="1543" width="108.21" height="22" rx="4" fill="#254b71" stroke="#6aacfb"/><rect x="1300.62" y="1543" width="54.11" height="22" rx="4" fill="#70b3ff"/><line class="task-grid" x1="0" y1="1622" x2="1600" y2="1622" stroke="#2e4357"/><text x="22" y="1605" class="task">11.1 Review DAQ and controller terms</text><text x="1576" y="1605" class="task" text-anchor="end">100%</text><rect x="1300.62" y="1589" width="18.04" height="22" rx="4" fill="#254b71" stroke="#6aacfb"/><rect x="1300.62" y="1589" width="18.04" height="22" rx="4" fill="#70b3ff"/><line class="task-grid" x1="0" y1="1668" x2="1600" y2="1668" stroke="#2e4357"/><text x="22" y="1651" class="task">11.2 Refine and review candidate gains</text><text x="1576" y="1651" class="task" text-anchor="end">0%</text><rect x="1318.66" y="1635" width="90.18" height="22" rx="4" fill="#254b71" stroke="#6aacfb"/><line class="task-grid" x1="0" y1="1714" x2="1600" y2="1714" stroke="#2e4357"/><text x="22" y="1697" class="task">12 Prototype survey</text><text x="1576" y="1697" class="task" text-anchor="end">0%</text><rect x="1426.88" y="1681" width="45.09" height="22" rx="4" fill="#254b71" stroke="#6aacfb"/><line class="task-grid" x1="0" y1="1760" x2="1600" y2="1760" stroke="#2e4357"/><text x="22" y="1743" class="task">12.1 Prepare prototype feedback survey</text><text x="1576" y="1743" class="task" text-anchor="end">0%</text><rect x="1426.88" y="1727" width="18.04" height="22" rx="4" fill="#254b71" stroke="#6aacfb"/><line class="task-grid" x1="0" y1="1806" x2="1600" y2="1806" stroke="#2e4357"/><text x="22" y="1789" class="task">12.2 Collect feedback and next changes</text><text x="1576" y="1789" class="task" text-anchor="end">0%</text><rect x="1444.91" y="1773" width="27.05" height="22" rx="4" fill="#254b71" stroke="#6aacfb"/></svg>